<svg xmlns="http://www.w3.org/2000/svg" width="45.459" height="45.459" viewBox="0 0 45.459 45.459">
  <path id="_1051360" data-name="1051360" d="M6.659,45.459H21.487V29.3H16.159V23.973h5.327V17.314a6.667,6.667,0,0,1,6.659-6.659H34.8v5.327H29.477a2.667,2.667,0,0,0-2.664,2.664v5.327h7.751L33.676,29.3H26.814V45.459H38.8A6.667,6.667,0,0,0,45.459,38.8V6.659A6.667,6.667,0,0,0,38.8,0H6.659A6.667,6.667,0,0,0,0,6.659V38.8A6.667,6.667,0,0,0,6.659,45.459Zm-4-38.8a4,4,0,0,1,4-4H38.8a4,4,0,0,1,4,4V38.8a4,4,0,0,1-4,4H29.477V31.964h6.455l1.776-10.655H29.477V18.645h7.991V7.991H28.146a9.333,9.333,0,0,0-9.323,9.323v4H13.5V31.964h5.327V42.8H6.659a4,4,0,0,1-4-4Zm0,0" fill="#fff"/>
</svg>
