<svg id="Layer_1" data-name="Layer 1" xmlns="http://www.w3.org/2000/svg" viewBox="0 0 524.79 211.08"><defs><style>.cls-1{fill:#5e5c5c;}.cls-1,.cls-3,.cls-4{stroke:#1d1d1b;}.cls-1,.cls-2,.cls-3,.cls-4{stroke-miterlimit:10;}.cls-1,.cls-3{stroke-width:0.5px;}.cls-2{stroke:#010101;}.cls-3{fill:#baafaf;}.cls-4{fill:#848080;stroke-width:0.75px;}.cls-5{font-size:59.73px;fill:#1d1d1b;font-family:CaviarDreams, Caviar Dreams;}.cls-6,.cls-7{font-family:CaviarDreams-Bold, Caviar Dreams;font-weight:700;}.cls-7{letter-spacing:0.01em;}</style></defs><title>salon cheri logo-color-ikke pikseleret</title><path class="cls-1" d="M209.61,363.65c10.91-16.23,28.32-37.23,49.63-40,28.16-3.61,36.86,28,69.24,34.77,31.86,6.65,34.66-21.62,75.09-25.29,46.51-4.22,50.72,32.46,94.92,24.6,31.84-5.66,37.82-26.14,67.39-26.59,36.82-.56,63.24,31.7,63.22,31.78a95.72,95.72,0,0,0-35.74-18.77c-5.23-1.43-22.55-6.57-38.7-1.48A66.18,66.18,0,0,0,540.35,349c-4.54,2.89-6.45,5-11.66,8a62.32,62.32,0,0,1-10.91,4.75,82.56,82.56,0,0,1-26.87,5.08c-3.31,0-16.37-.09-32.73-7.37-15.71-7-15.76-12.27-28.59-15.34-6.89-1.65-12.5-1.39-23.73-.87-9.3.42-15.46,1.11-23.41,4.27-12,4.78-12.39,9.49-26.12,16.37-9.31,4.66-17.19,8.61-27.31,7.22s-18.53-7.67-24.48-12.16c-4.83-3.64-6.74-5.86-10.44-9.14-13.3-11.78-26.48-16.48-31.48-17.66C240.15,326.86,217.32,353.79,209.61,363.65Z" transform="translate(-180.71 -185.71)"/><g id="Layer_13" data-name="Layer 13"><path class="cls-2" d="M332.44,395.29q-9.76-31.07-21.87-64.35-11.71-32-23.81-60.93a142.39,142.39,0,0,1-2-15.15c-.84-10.83-1.26-16.25.72-21,1.62-3.92,3-4,8.21-13.66,2.47-4.57,2.85-5.81,3.06-6.65,1.86-7.32-1.1-14-2-15.88a22.66,22.66,0,0,0-7.83-8.82,15.1,15.1,0,0,0-6.29-2.51,14.07,14.07,0,0,0-6.64.8,16.15,16.15,0,0,0-6.8,4.92c-3.27,4-3.89,8.53-4.25,11.14-.31,2.31-1.07,7.73,1.37,13,.81,1.73,1.39,2.22,4.7,6.31,3.83,4.75,5.94,7.36,7.28,9.41,4.31,6.62,4.9,14,5.23,18.22.5,6.2-.37,10.86-1.77,18.76q-1,5.64-2.54,11.13a530.45,530.45,0,0,0,22.72,57.95,515.7,515.7,0,0,0,31.48,58.15C331.71,395.77,332.08,395.53,332.44,395.29Zm-55.3-171.73c-6.45-1.57-11-8.08-10.87-15.52a19.22,19.22,0,0,1,2.63-11.4c.72-1.14,3.54-5.56,8.49-6.23,4.17-.57,7.32,1.84,9,3.12s8.14,6.64,7.84,15.71c0,1.11-.41,8.7-6,12.75C283.52,225.36,278.49,223.9,277.14,223.56Z" transform="translate(-180.71 -185.71)"/><path class="cls-2" d="M382.93,321.82l-107.25-34a152.58,152.58,0,0,1-14.33,7.3c-8.5,3.76-12.86,5.63-18.15,5.48A28.6,28.6,0,0,1,228.75,296c-1.46-.89-1.78-1.6-12.89-14a38.34,38.34,0,0,0-4.05-4.2c-1.56-1.26-6.57-5.3-13.54-4.86a18.54,18.54,0,0,0-8.47,2.66A17.21,17.21,0,0,0,181.49,289a22.1,22.1,0,0,0,1.41,12c3.24,7.31,10,9.47,12.09,10.13a16.58,16.58,0,0,0,10.88.2c2.23-.81,2.66-1.63,9.75-6.37,3.52-2.36,5.28-3.54,5.68-3.67,6.29-2,14.6,2,18,4.6a5.75,5.75,0,0,0,2.5,1.23c2.52.51,4.65-1.14,5.76-1.85,1.64-1,4.68-1.53,10.8-2.47,10.41-1.61,28.44,5.11,29.48,5.5l94.65,15.94Zm-173.8-15.53a13,13,0,0,1-7.17,2.12,17.46,17.46,0,0,1-10.28-2.76c-2.76-1.76-5.73-5.11-6.5-8.39a16.26,16.26,0,0,1,.37-9.47,17,17,0,0,1,5.13-7.63c4.41-3.5,9.37-2.76,11.82-2.4s8.13,1.36,11,6.8a18.34,18.34,0,0,1,2.18,7.22,18.1,18.1,0,0,1-1.42,8.22A14.94,14.94,0,0,1,209.13,306.29Z" transform="translate(-180.71 -185.71)"/></g><path class="cls-3" d="M658.64,340.34c-10.89,12.94-28.42,29.66-50.57,31.74-29.25,2.75-39.25-22.63-73.22-28.2-33.41-5.49-35.5,17.13-77.55,19.86-48.36,3.13-53.84-26.25-99.69-20.19-33,4.36-38.66,20.73-69.48,20.94-38.37.25-66.87-25.72-66.85-25.78a116,116,0,0,0,37.81,15.22c5.5,1.17,23.71,5.37,40.4,1.38a77.33,77.33,0,0,0,14.74-5c4.64-2.29,6.57-4,11.91-6.32a74.61,74.61,0,0,1,11.24-3.74,100.55,100.55,0,0,1,62.21,2.15c16.59,5.68,16.79,9.91,30.27,12.43,7.22,1.35,13.07,1.17,24.76.82,9.68-.29,16.08-.81,24.28-3.3,12.4-3.76,12.64-7.53,26.75-13,9.57-3.68,17.67-6.8,28.26-5.64s19.55,6.24,25.89,9.86C565,346.55,567,348.34,571,351c14.22,9.5,28.1,13.33,33.35,14.3C627.89,369.64,650.89,348.19,658.64,340.34Z" transform="translate(-180.71 -185.71)"/><path class="cls-4" d="M271.48,361.24c10.79-13.57,28.15-31.14,50.1-33.49,29-3.11,38.95,23.24,72.64,28.77,33.13,5.44,35.17-18.15,76.86-21.34,47.95-3.66,53.41,26.9,98.87,20.21,32.74-4.83,38.31-21.93,68.86-22.4,38.05-.58,66.34,26.24,66.32,26.3a111.43,111.43,0,0,0-37.51-15.54c-5.45-1.17-23.52-5.4-40.06-1.1A75.22,75.22,0,0,0,613,348c-4.61,2.42-6.52,4.2-11.81,6.68a72.08,72.08,0,0,1-11.14,4,95.06,95.06,0,0,1-61.69-1.72c-16.45-5.78-16.66-10.18-30-12.69-7.16-1.35-13-1.12-24.56-.65-9.59.38-15.94,1-24.06,3.64-12.29,4-12.52,7.95-26.51,13.73-9.48,3.92-17.52,7.24-28,6.11s-19.4-6.34-25.68-10.06c-5.11-3-7.14-4.87-11.07-7.58-14.11-9.78-27.87-13.66-33.08-14.63C301.94,330.46,279.16,353,271.48,361.24Z" transform="translate(-180.71 -185.71)"/><text class="cls-5" transform="matrix(0.89, -0.01, 0.01, 1, 203.09, 127.19)">Salon <tspan class="cls-6" x="170.57" y="0">Che</tspan><tspan class="cls-7" x="288.07" y="0">r</tspan><tspan class="cls-6" x="308.86" y="0">i</tspan></text></svg>